<svg width="121" height="65" viewBox="0 0 121 65" fill="none" xmlns="http://www.w3.org/2000/svg">
<path d="M109.778 54.1271C100.839 50.929 92.5348 47.9057 84.1723 44.9979C83.5377 44.8231 82.7277 45.2838 80.9363 45.6846C84.3927 48.0041 86.984 50.0326 89.8079 51.5993C97.3002 55.6613 104.794 59.4344 112.402 63.2655C113.324 63.7298 114.189 64.3097 115.227 64.5431C118.515 65.4749 120.541 64.0341 120.265 60.5654C120.097 58.8887 119.756 57.2695 119.242 55.7078C117.3 49.8078 115.184 43.9653 113.068 38.1227C112.725 37.0816 111.862 36.2127 110.885 34.7078C107.689 40.4812 112.755 45.0584 111.697 50.3162C110.776 49.5628 109.912 48.9829 109.221 48.3456C82.3977 24.1274 50.9217 9.43669 15.8395 2.1949C12.2046 1.37798 8.4524 1.081 4.75831 0.668565C2.85363 0.433324 0.83061 1.00709 0.764366 3.43466C0.582824 5.80418 2.19677 6.61683 4.44831 6.7372C29.7356 7.88898 52.1624 17.8785 74.1221 29.3699C85.5921 35.29 96.2501 42.2489 106.095 50.5355C107.304 51.5785 108.455 52.737 109.778 54.1271Z" fill="white"/>
</svg>
