<svg width="24" height="25" viewBox="0 0 24 25" fill="none" xmlns="http://www.w3.org/2000/svg">
<g clip-path="url(#clip0_2_835)">
<path d="M12 0.5C8.81812 0.5 5.76375 1.76506 3.51562 4.01469C1.26518 6.26521 0.000623381 9.31734 0 12.5C0 15.6813 1.26562 18.7357 3.51562 20.9853C5.76375 23.2349 8.81812 24.5 12 24.5C15.1819 24.5 18.2362 23.2349 20.4844 20.9853C22.7344 18.7357 24 15.6813 24 12.5C24 9.31869 22.7344 6.26431 20.4844 4.01469C18.2362 1.76506 15.1819 0.5 12 0.5Z" fill="#3F83F8"/>
<path d="M5.43184 12.3733C8.93059 10.8493 11.2631 9.84448 12.4293 9.35904C15.7631 7.97285 16.455 7.7321 16.9068 7.72395C17.0062 7.72235 17.2275 7.74692 17.3718 7.86364C17.4918 7.96207 17.5256 8.0952 17.5425 8.18867C17.5575 8.28204 17.5781 8.49485 17.5612 8.66098C17.3812 10.5585 16.5993 15.1631 16.2018 17.2884C16.035 18.1877 15.7031 18.4892 15.3825 18.5186C14.685 18.5827 14.1562 18.0581 13.4812 17.6158C12.4256 16.9234 11.8293 16.4925 10.8037 15.8169C9.61872 15.0362 10.3875 14.607 11.0625 13.9057C11.2387 13.7222 14.31 10.9294 14.3681 10.676C14.3756 10.6444 14.3831 10.5262 14.3118 10.464C14.2425 10.4015 14.1393 10.4229 14.0643 10.4398C13.9575 10.4638 12.2718 11.579 9.00184 13.7854C8.52372 14.1142 8.09059 14.2745 7.70059 14.2661C7.27309 14.2569 6.44809 14.0239 5.83497 13.8247C5.08497 13.5804 4.48684 13.4512 4.53934 13.0363C4.56559 12.8203 4.86372 12.5992 5.43184 12.3733Z" fill="white"/>
</g>
<defs>
<clipPath id="clip0_2_835">
<rect width="24" height="24" fill="white" transform="translate(0 0.5)"/>
</clipPath>
</defs>
</svg>
