<svg width="35" height="35" viewBox="0 0 35 35" fill="none" xmlns="http://www.w3.org/2000/svg">
<g clip-path="url(#clip0_2_1346)">
<path d="M17.5 0.0200195C12.9261 0.0200195 8.53539 1.83855 5.30371 5.07238C2.0687 8.3075 0.250896 12.6949 0.25 17.27C0.25 21.8432 2.06934 26.2338 5.30371 29.4677C8.53539 32.7015 12.9261 34.52 17.5 34.52C22.0739 34.52 26.4646 32.7015 29.6963 29.4677C32.9307 26.2338 34.75 21.8432 34.75 17.27C34.75 12.6969 32.9307 8.30622 29.6963 5.07238C26.4646 1.83855 22.0739 0.0200195 17.5 0.0200195Z" fill="white"/>
<path d="M8.05834 17.0878C13.0878 14.8971 16.4408 13.4527 18.1172 12.7548C22.9095 10.7622 23.9041 10.4161 24.5536 10.4044C24.6965 10.4021 25.0145 10.4374 25.2221 10.6052C25.3946 10.7467 25.4431 10.9381 25.4674 11.0724C25.4889 11.2067 25.5186 11.5126 25.4943 11.7514C25.2356 14.479 24.1116 21.0982 23.5402 24.1533C23.3003 25.446 22.8233 25.8794 22.3624 25.9217C21.3597 26.0139 20.5996 25.2597 19.6293 24.6239C18.1119 23.6285 17.2547 23.0092 15.7804 22.038C14.077 20.9157 15.182 20.2988 16.1524 19.2907C16.4057 19.0268 20.8206 15.0122 20.9042 14.648C20.915 14.6025 20.9258 14.4327 20.8233 14.3432C20.7236 14.2534 20.5754 14.2842 20.4676 14.3084C20.3139 14.3429 17.8908 15.9461 13.1902 19.1177C12.5029 19.5904 11.8803 19.8209 11.3197 19.8087C10.7051 19.7955 9.5192 19.4605 8.63783 19.1743C7.5597 18.8231 6.6999 18.6374 6.77537 18.0409C6.8131 17.7304 7.24166 17.4126 8.05834 17.0878Z" fill="white"/>
<path d="M8.05834 17.0878C13.0878 14.8971 16.4408 13.4527 18.1172 12.7548C22.9095 10.7622 23.9041 10.4161 24.5536 10.4044C24.6965 10.4021 25.0145 10.4374 25.2221 10.6052C25.3946 10.7467 25.4431 10.9381 25.4674 11.0724C25.4889 11.2067 25.5186 11.5126 25.4943 11.7514C25.2356 14.479 24.1116 21.0982 23.5402 24.1533C23.3003 25.446 22.8233 25.8794 22.3624 25.9217C21.3597 26.0139 20.5996 25.2597 19.6293 24.6239C18.1119 23.6285 17.2547 23.0092 15.7804 22.038C14.077 20.9157 15.182 20.2988 16.1524 19.2907C16.4057 19.0268 20.8206 15.0122 20.9042 14.648C20.915 14.6025 20.9258 14.4327 20.8233 14.3432C20.7236 14.2534 20.5754 14.2842 20.4676 14.3084C20.3139 14.3429 17.8908 15.9461 13.1902 19.1177C12.5029 19.5904 11.8803 19.8209 11.3197 19.8087C10.7051 19.7955 9.5192 19.4605 8.63783 19.1743C7.5597 18.8231 6.6999 18.6374 6.77537 18.0409C6.8131 17.7304 7.24166 17.4126 8.05834 17.0878Z" fill="url(#paint0_linear_2_1346)"/>
</g>
<defs>
<linearGradient id="paint0_linear_2_1346" x1="943.403" y1="10.4043" x2="943.403" y2="1562.92" gradientUnits="userSpaceOnUse">
<stop stop-color="#2AABEE"/>
<stop offset="1" stop-color="#229ED9"/>
</linearGradient>
<clipPath id="clip0_2_1346">
<rect width="34.5" height="34.5" fill="white" transform="translate(0.25 0.0200195)"/>
</clipPath>
</defs>
</svg>
